<?xml version="1.0" encoding="utf-8"?>
<!-- Generator: Adobe Illustrator 27.2.0, SVG Export Plug-In . SVG Version: 6.00 Build 0)  -->
<svg version="1.1" id="Layer_1" xmlns="http://www.w3.org/2000/svg" xmlns:xlink="http://www.w3.org/1999/xlink" x="0px" y="0px"
	 viewBox="0 0 1000 1000" style="enable-background:new 0 0 1000 1000;" xml:space="preserve">
<style type="text/css">
	.st0{fill:#575757;}
	.st1{fill:url(#SVGID_1_);}
	.st2{fill:url(#SVGID_00000045620602856990882360000008520729778097744524_);}
	.st3{fill:url(#SVGID_00000128446633241296010410000007043078056692336265_);}
	.st4{fill:url(#SVGID_00000114778368250695058000000001018695677817571750_);}
	.st5{fill:url(#SVGID_00000099633711961776824760000016159705332697177255_);}
	.st6{fill:url(#SVGID_00000067221233816294548980000009684201088190433450_);}
	.st7{fill:url(#SVGID_00000183207542557899075380000003460696296604610482_);}
	.st8{fill:url(#SVGID_00000116197421517574000190000016603635482167640986_);}
	.st9{fill:url(#SVGID_00000172442123903464362960000006768394796110960063_);}
	.st10{fill:url(#SVGID_00000023262255544621853240000014469728368947439277_);}
	.st11{fill:url(#SVGID_00000008140421870175281240000008445428457881689532_);}
	.st12{fill:url(#SVGID_00000040544914887519016660000011174415191426556333_);}
	.st13{fill:url(#SVGID_00000034072432729788285820000016345991824213696925_);}
	.st14{fill:url(#SVGID_00000061465646378777332960000011109930041418205359_);}
	.st15{fill:url(#SVGID_00000101081352928460399930000013274152010357118378_);}
	.st16{fill:url(#SVGID_00000165197638828746537870000007894855338250581419_);}
	.st17{fill:url(#SVGID_00000053531021740372238060000013583831213083425463_);}
	.st18{fill:url(#SVGID_00000180337736975077405870000005994483810483097508_);}
	.st19{fill:url(#SVGID_00000170241120501607329700000009952487328935129481_);}
	.st20{fill:url(#SVGID_00000011032546556767976620000001980133792423923610_);}
	.st21{fill:url(#SVGID_00000170979078470614552370000005285696474034659714_);}
	.st22{fill:url(#SVGID_00000114044275408257066730000013697840584848776352_);}
	.st23{fill:url(#SVGID_00000165221957952876210370000005076624745809604024_);}
	.st24{fill:url(#SVGID_00000092421025231879518010000004605744611298999992_);}
</style>
<g>
	<g>
		
			<linearGradient id="SVGID_1_" gradientUnits="userSpaceOnUse" x1="556.1609" y1="1251.4901" x2="320.4435" y2="1450.6407" gradientTransform="matrix(1 0 0 1 0 -1022)">
			<stop  offset="0" style="stop-color:#62B34F"/>
			<stop  offset="0.46" style="stop-color:#51BAB4"/>
			<stop  offset="1" style="stop-color:#0094D3"/>
		</linearGradient>
		<path class="st1" d="M505.7,281.3l-1.5-2.2l-112.6,80.3l1.4,2.3L505.7,281.3z"/>
		
			<linearGradient id="SVGID_00000045620602856990882360000008520729778097744524_" gradientUnits="userSpaceOnUse" x1="548.2938" y1="1242.1545" x2="312.5239" y2="1441.3051" gradientTransform="matrix(1 0 0 1 0 -1022)">
			<stop  offset="0" style="stop-color:#62B34F"/>
			<stop  offset="0.46" style="stop-color:#51BAB4"/>
			<stop  offset="1" style="stop-color:#0094D3"/>
		</linearGradient>
		<path style="fill:url(#SVGID_00000045620602856990882360000008520729778097744524_);" d="M483.4,282.7l-1.5-2.3l-90.3,64.4
			l1.5,2.2L483.4,282.7z"/>
		
			<linearGradient id="SVGID_00000173152688257858538660000017747330248596305839_" gradientUnits="userSpaceOnUse" x1="540.1374" y1="1232.5245" x2="304.4199" y2="1431.675" gradientTransform="matrix(1 0 0 1 0 -1022)">
			<stop  offset="0" style="stop-color:#62B34F"/>
			<stop  offset="0.46" style="stop-color:#51BAB4"/>
			<stop  offset="1" style="stop-color:#0094D3"/>
		</linearGradient>
		<path style="fill:url(#SVGID_00000173152688257858538660000017747330248596305839_);" d="M456,287.5l-1.5-2.3l-63,45l1.5,2.2
			L456,287.5z"/>
		
			<linearGradient id="SVGID_00000021083045838883561890000000274247443993947565_" gradientUnits="userSpaceOnUse" x1="531.8346" y1="1222.6552" x2="296.0647" y2="1421.8055" gradientTransform="matrix(1 0 0 1 0 -1022)">
			<stop  offset="0" style="stop-color:#62B34F"/>
			<stop  offset="0.46" style="stop-color:#51BAB4"/>
			<stop  offset="1" style="stop-color:#0094D3"/>
		</linearGradient>
		<path style="fill:url(#SVGID_00000021083045838883561890000000274247443993947565_);" d="M419.3,299l-1.5-2.3l-26.2,19l1.5,2.2
			L419.3,299z"/>
		
			<linearGradient id="SVGID_00000182497344656813267710000003344254501416972949_" gradientUnits="userSpaceOnUse" x1="633.4457" y1="1342.9315" x2="397.7282" y2="1542.082" gradientTransform="matrix(1 0 0 1 0 -1022)">
			<stop  offset="0" style="stop-color:#62B34F"/>
			<stop  offset="0.46" style="stop-color:#51BAB4"/>
			<stop  offset="1" style="stop-color:#0094D3"/>
		</linearGradient>
		<path style="fill:url(#SVGID_00000182497344656813267710000003344254501416972949_);" d="M562.2,382.8L562.2,382.8l-18.5,13l0,0
			L450,462.7l1.9,2.9l-12.7,9.3l1,1.5L413,496.3l1.5,2.2l30-21.9l0,0l10.1-7.1l95.4-68.2l-1.9-3l16.8-12l-0.9-1.5l61.3-43.7
			l-1.4-2.2L562.2,382.8z"/>
		
			<linearGradient id="SVGID_00000165942080482208985090000005626431364874424492_" gradientUnits="userSpaceOnUse" x1="640.8864" y1="1351.7539" x2="405.169" y2="1550.9569" gradientTransform="matrix(1 0 0 1 0 -1022)">
			<stop  offset="0" style="stop-color:#62B34F"/>
			<stop  offset="0.46" style="stop-color:#51BAB4"/>
			<stop  offset="1" style="stop-color:#0094D3"/>
		</linearGradient>
		<path style="fill:url(#SVGID_00000165942080482208985090000005626431364874424492_);" d="M567.4,393.6L567.4,393.6l-19.6,13.9l0,0
			l-90.9,64.9l1.9,2.9l-13.7,10l1,1.4l-26.7,19.5l1.5,2.2l26.7-19.6l0,0l13.6-9.9l0,0l91.2-65.1l-1.9-3l19.5-13.6l-1-1.5l56.1-39.9
			l-1.5-2.2L567.4,393.6z"/>
		
			<linearGradient id="SVGID_00000031888596712662384510000002117498348502879143_" gradientUnits="userSpaceOnUse" x1="648.2114" y1="1360.3773" x2="412.494" y2="1559.5802" gradientTransform="matrix(1 0 0 1 0 -1022)">
			<stop  offset="0" style="stop-color:#62B34F"/>
			<stop  offset="0.46" style="stop-color:#51BAB4"/>
			<stop  offset="1" style="stop-color:#0094D3"/>
		</linearGradient>
		<path style="fill:url(#SVGID_00000031888596712662384510000002117498348502879143_);" d="M572.4,404.7L572.4,404.7l-16.2,11.5
			l-92.9,66.2l1.9,3l-12.5,9.1l1,1.4l-26.9,19.7l1.5,2.2l26.9-19.7l0,0l12.5-9.2l92.9-66.2l-1.9-3l16.2-11.5l-0.9-1.5l50.9-36.4
			l-1.5-2.2L572.4,404.7z"/>
		
			<linearGradient id="SVGID_00000150819741622097104090000009507822392246752672_" gradientUnits="userSpaceOnUse" x1="655.5417" y1="1369.0785" x2="419.8242" y2="1568.2815" gradientTransform="matrix(1 0 0 1 0 -1022)">
			<stop  offset="0" style="stop-color:#62B34F"/>
			<stop  offset="0.46" style="stop-color:#51BAB4"/>
			<stop  offset="1" style="stop-color:#0094D3"/>
		</linearGradient>
		<path style="fill:url(#SVGID_00000150819741622097104090000009507822392246752672_);" d="M580,413.7L580,413.7l-15.7,11.4l0,0
			l-94,66.6l2,3l-15.7,11.7l1,1.5l-22.2,16.3l1.5,2.2l25.4-18.6l17.1-12.4l90-64.2l-1.9-3l15.2-10.9l-1-1.5l43.2-30.8l-1.5-2.2
			L580,413.7z"/>
		
			<linearGradient id="SVGID_00000105419462301066722620000002106044500620277635_" gradientUnits="userSpaceOnUse" x1="663.4363" y1="1378.437" x2="427.7188" y2="1577.64" gradientTransform="matrix(1 0 0 1 0 -1022)">
			<stop  offset="0" style="stop-color:#62B34F"/>
			<stop  offset="0.46" style="stop-color:#51BAB4"/>
			<stop  offset="1" style="stop-color:#0094D3"/>
		</linearGradient>
		<path style="fill:url(#SVGID_00000105419462301066722620000002106044500620277635_);" d="M589.4,421.5L589.4,421.5L571.8,434l0,0
			l-81.4,58l1.9,2.9l-19.3,14.1l1,1.5l-30.1,22l1.5,2.2l32.7-23.9l0,0l16.5-12.1l0,0l81.9-58.4l-1.9-3l17.1-12.2l-0.9-1.5l33.8-23.9
			l-1.5-2.3L589.4,421.5z"/>
		
			<linearGradient id="SVGID_00000134221498878376425100000003596744429393974959_" gradientUnits="userSpaceOnUse" x1="671.8593" y1="1388.3867" x2="436.0894" y2="1587.5374" gradientTransform="matrix(1 0 0 1 0 -1022)">
			<stop  offset="0" style="stop-color:#62B34F"/>
			<stop  offset="0.46" style="stop-color:#51BAB4"/>
			<stop  offset="1" style="stop-color:#0094D3"/>
		</linearGradient>
		<path style="fill:url(#SVGID_00000134221498878376425100000003596744429393974959_);" d="M610.3,422.2l-0.5-0.7l-20.6,14.7
			l-78.7,56.2l2,3l-21.2,15.7l0.9,1.5L455,539.8l1.5,2.2l40-29.4l20.5-15l76.5-54.8l-1.9-2.9l20.6-14.7l-1.2-1.8l0.7,1.1l12.8-9.5
			l-1.5-2.2L610.3,422.2z"/>
		
			<linearGradient id="SVGID_00000155869090685936466260000013570787838394460546_" gradientUnits="userSpaceOnUse" x1="679.9317" y1="1397.9365" x2="444.1617" y2="1597.087" gradientTransform="matrix(1 0 0 1 0 -1022)">
			<stop  offset="0" style="stop-color:#62B34F"/>
			<stop  offset="0.46" style="stop-color:#51BAB4"/>
			<stop  offset="1" style="stop-color:#0094D3"/>
		</linearGradient>
		<path style="fill:url(#SVGID_00000155869090685936466260000013570787838394460546_);" d="M610.7,435.4L610.7,435.4l-11.6,8.2
			l-46.3,33.1l1.9,3L535,494.2l1,1.5l-70.7,51.7l1.5,2.2l73.4-53.7l0,0l17.2-12.5l0,0l45.9-32.7l-1.9-3l11.6-8.2l-0.9-1.5l12.1-8.7
			l-1.5-2.3L610.7,435.4z"/>
		
			<linearGradient id="SVGID_00000010996929254506283680000017348591846120133019_" gradientUnits="userSpaceOnUse" x1="687.5003" y1="1406.8622" x2="451.7305" y2="1606.0652" gradientTransform="matrix(1 0 0 1 0 -1022)">
			<stop  offset="0" style="stop-color:#62B34F"/>
			<stop  offset="0.46" style="stop-color:#51BAB4"/>
			<stop  offset="1" style="stop-color:#0094D3"/>
		</linearGradient>
		<path style="fill:url(#SVGID_00000010996929254506283680000017348591846120133019_);" d="M613,448.8v-0.4l-10.9,7.8l0,0
			l-36.7,26.2l2,3l-17.2,12.5l1,1.5l-74.5,54.5l1.5,2.2l78-57.2l15-11l35-25.2l-1.9-2.9l10.9-7.6l-1.2-1.8l8.5-6l-0.9-1.5L613,448.8
			z"/>
		
			<linearGradient id="SVGID_00000119096295455531953400000004623569938405684150_" gradientUnits="userSpaceOnUse" x1="564.3753" y1="1261.2218" x2="328.6578" y2="1460.3724" gradientTransform="matrix(1 0 0 1 0 -1022)">
			<stop  offset="0" style="stop-color:#62B34F"/>
			<stop  offset="0.46" style="stop-color:#51BAB4"/>
			<stop  offset="1" style="stop-color:#0094D3"/>
		</linearGradient>
		<path style="fill:url(#SVGID_00000119096295455531953400000004623569938405684150_);" d="M402.1,376.4l10.5-7.6l39.6-28.2l-1.9-3
			l17.4-12.4l-0.9-1.4l58.6-42l-1.4-2.2L465,321.5l0,0l-17.4,12.4l-42,29.9l1.9,3l-10,7.2l1,1.5l-7.3,5.2l1.5,2.2L402.1,376.4z"/>
		
			<linearGradient id="SVGID_00000159441875767317759210000008514995781189681041_" gradientUnits="userSpaceOnUse" x1="572.2666" y1="1270.5433" x2="336.5492" y2="1469.6938" gradientTransform="matrix(1 0 0 1 0 -1022)">
			<stop  offset="0" style="stop-color:#62B34F"/>
			<stop  offset="0.46" style="stop-color:#51BAB4"/>
			<stop  offset="1" style="stop-color:#0094D3"/>
		</linearGradient>
		<path style="fill:url(#SVGID_00000159441875767317759210000008514995781189681041_);" d="M408.5,386.3l10.5-7.6l48.9-34.9l-1.9-3
			l13.5-9.7l-0.9-1.4l63.6-45.9l-1.5-2.2L477,327.6l0,0l-13.5,9.7l-52.1,37.1l1.9,3l-9,6.6l0.9,1.5l-13.7,10l1.5,2.2L408.5,386.3z"
			/>
		
			<linearGradient id="SVGID_00000106831064252865629020000000039927403850217612_" gradientUnits="userSpaceOnUse" x1="580.0359" y1="1279.7203" x2="344.3185" y2="1478.9233" gradientTransform="matrix(1 0 0 1 0 -1022)">
			<stop  offset="0" style="stop-color:#62B34F"/>
			<stop  offset="0.46" style="stop-color:#51BAB4"/>
			<stop  offset="1" style="stop-color:#0094D3"/>
		</linearGradient>
		<path style="fill:url(#SVGID_00000106831064252865629020000000039927403850217612_);" d="M410.8,399.2l13.7-10l53.3-38l-1.9-3
			l14.3-10.2l-0.9-1.4l68.8-49.5l-1.5-2.3l-68.8,49.5l0,0l-15,10.5l0,0L417,384.7l1.9,3l-12.1,8.8l1,1.5l-16.6,12.3l1.5,2.2
			L410.8,399.2z"/>
		
			<linearGradient id="SVGID_00000062907130724084718280000005125195686659984820_" gradientUnits="userSpaceOnUse" x1="587.928" y1="1289.0471" x2="352.2106" y2="1488.2501" gradientTransform="matrix(1 0 0 1 0 -1022)">
			<stop  offset="0" style="stop-color:#62B34F"/>
			<stop  offset="0.46" style="stop-color:#51BAB4"/>
			<stop  offset="1" style="stop-color:#0094D3"/>
		</linearGradient>
		<path style="fill:url(#SVGID_00000062907130724084718280000005125195686659984820_);" d="M416.3,409.8l14.9-10.9l56.7-40.4l-1.9-3
			l15.1-10.8l-1-1.6l73.4-51.9l-1.5-2.2l-74.7,52.5l0,0l-14.2,10.2l0,0L422.3,395l2,3l-13.9,10.2l1,1.5l-19.8,15.1l1.5,2.3
			L416.3,409.8z"/>
		
			<linearGradient id="SVGID_00000034053607380057338600000010511542368312961959_" gradientUnits="userSpaceOnUse" x1="595.7303" y1="1298.3016" x2="360.0128" y2="1497.5046" gradientTransform="matrix(1 0 0 1 0 -1022)">
			<stop  offset="0" style="stop-color:#62B34F"/>
			<stop  offset="0.46" style="stop-color:#51BAB4"/>
			<stop  offset="1" style="stop-color:#0094D3"/>
		</linearGradient>
		<path style="fill:url(#SVGID_00000034053607380057338600000010511542368312961959_);" d="M423.1,419.5l9.7-7l65.3-46.6l-2-2.8
			l16.9-12l-0.9-1.5l74.1-53l-1.5-2.3l-74.1,53l0,0l-16.9,12.1l0,0l-65.3,46.3l1.9,3l-12.4,9.1l1,1.5l-26.2,19.1l1.5,2.3l29-21
			L423.1,419.5z"/>
		
			<linearGradient id="SVGID_00000151531802010535979730000000922822361377600418_" gradientUnits="userSpaceOnUse" x1="603.5522" y1="1307.541" x2="367.8348" y2="1506.744" gradientTransform="matrix(1 0 0 1 0 -1022)">
			<stop  offset="0" style="stop-color:#62B34F"/>
			<stop  offset="0.46" style="stop-color:#51BAB4"/>
			<stop  offset="1" style="stop-color:#0094D3"/>
		</linearGradient>
		<path style="fill:url(#SVGID_00000151531802010535979730000000922822361377600418_);" d="M429.5,429.4l11-8l67.5-48.2l-1.9-3
			l18.7-13.3l-0.9-1.4l76.1-54.3l-1.4-2.2l-76.1,54.2l0,0l-19.8,14.2l0,0L434,416.3l1.9,3l-11.8,8.6l0.9,1.5l-30.2,22.1l1.5,2.2
			L429.5,429.4L429.5,429.4z"/>
		
			<linearGradient id="SVGID_00000116235219390192940200000008012855665005019029_" gradientUnits="userSpaceOnUse" x1="611.3329" y1="1316.7316" x2="375.5631" y2="1515.9346" gradientTransform="matrix(1 0 0 1 0 -1022)">
			<stop  offset="0" style="stop-color:#62B34F"/>
			<stop  offset="0.46" style="stop-color:#51BAB4"/>
			<stop  offset="1" style="stop-color:#0094D3"/>
		</linearGradient>
		<path style="fill:url(#SVGID_00000116235219390192940200000008012855665005019029_);" d="M431.4,442.7l15.7-11.5l79.7-56.5l-2-3
			l17.6-12.6l-0.9-1.4l70.7-50.4l-1.5-2.2l-70.7,50.4l0,0l-18.2,12.9l0,0L439.2,427l1.9,3l-14.7,10.8l1,1.5l-29.3,21.4l1.5,2.3
			L431.4,442.7z"/>
		
			<linearGradient id="SVGID_00000075881788161049868550000002299937006348422272_" gradientUnits="userSpaceOnUse" x1="618.8463" y1="1325.6633" x2="383.1288" y2="1524.814" gradientTransform="matrix(1 0 0 1 0 -1022)">
			<stop  offset="0" style="stop-color:#62B34F"/>
			<stop  offset="0.46" style="stop-color:#51BAB4"/>
			<stop  offset="1" style="stop-color:#0094D3"/>
		</linearGradient>
		<path style="fill:url(#SVGID_00000075881788161049868550000002299937006348422272_);" d="M433.6,455.7l14-10.2l86.3-61.5l-1.9-2.9
			l17.7-12.8l-0.9-1.4l74.8-53.4l-1.5-2.3l-74.8,53.4l0,0l-17.7,12.6l0,0l-88.4,63l1.9,3l-15,11l1,1.5l-26.9,19.6l1.5,2.2
			L433.6,455.7z"/>
		
			<linearGradient id="SVGID_00000039109859798282227380000014273176828198059667_" gradientUnits="userSpaceOnUse" x1="626.1508" y1="1334.2817" x2="390.4333" y2="1533.4847" gradientTransform="matrix(1 0 0 1 0 -1022)">
			<stop  offset="0" style="stop-color:#62B34F"/>
			<stop  offset="0.46" style="stop-color:#51BAB4"/>
			<stop  offset="1" style="stop-color:#0094D3"/>
		</linearGradient>
		<path style="fill:url(#SVGID_00000039109859798282227380000014273176828198059667_);" d="M436.1,468.3l11.9-8.7l92.3-65.8l-1.9-3
			l16.8-12l-0.9-1.5l70.8-50.4l-1.5-2.3L552.9,375l0,0L536,387l-92.3,65.8l1.9,3l-14,10.2l1,1.5L407.3,486l1.5,2.3l27.5-19.9
			L436.1,468.3z"/>
		
			<linearGradient id="SVGID_00000170958675161030380010000003468313772274303422_" gradientUnits="userSpaceOnUse" x1="695.0747" y1="1415.8469" x2="459.3573" y2="1615.05" gradientTransform="matrix(1 0 0 1 0 -1022)">
			<stop  offset="0" style="stop-color:#62B34F"/>
			<stop  offset="0.46" style="stop-color:#51BAB4"/>
			<stop  offset="1" style="stop-color:#0094D3"/>
		</linearGradient>
		<path style="fill:url(#SVGID_00000170958675161030380010000003468313772274303422_);" d="M487,560.5l1.5,2.2l127.7-93l-1.5-2.2
			L487,560.5z"/>
		
			<linearGradient id="SVGID_00000011714946258270781190000000432174325278885530_" gradientUnits="userSpaceOnUse" x1="702.4225" y1="1424.5496" x2="466.6525" y2="1623.7001" gradientTransform="matrix(1 0 0 1 0 -1022)">
			<stop  offset="0" style="stop-color:#62B34F"/>
			<stop  offset="0.46" style="stop-color:#51BAB4"/>
			<stop  offset="1" style="stop-color:#0094D3"/>
		</linearGradient>
		<path style="fill:url(#SVGID_00000011714946258270781190000000432174325278885530_);" d="M497.8,567.6l1.5,2.2l107.5-78.7
			l-1.5-2.3L497.8,567.6z"/>
		
			<linearGradient id="SVGID_00000134928913835333232510000017118866035876135809_" gradientUnits="userSpaceOnUse" x1="710.1796" y1="1433.7316" x2="474.4096" y2="1632.9346" gradientTransform="matrix(1 0 0 1 0 -1022)">
			<stop  offset="0" style="stop-color:#62B34F"/>
			<stop  offset="0.46" style="stop-color:#51BAB4"/>
			<stop  offset="1" style="stop-color:#0094D3"/>
		</linearGradient>
		<path style="fill:url(#SVGID_00000134928913835333232510000017118866035876135809_);" d="M535.9,554.6l1.5,2.2l47.2-34.5l-1.5-2.2
			L535.9,554.6z"/>
	</g>
</g>
</svg>
